{
	"asset":{
		"generator":"Khronos glTF Blender I/O v5.1.20",
		"version":"2.0"
	},
	"scene":0,
	"scenes":[
		{
			"name":"Scene",
			"nodes":[
				0
			]
		}
	],
	"nodes":[
		{
			"mesh":0,
			"name":"Suzanne",
			"rotation":[
				-0.27726954221725464,
				0.35507744550704956,
				0.11391861736774445,
				0.8854739665985107
			],
			"translation":[
				0,
				0.6465796232223511,
				0
			]
		}
	],
	"materials":[
		{
			"doubleSided":true,
			"name":"Material.001",
			"pbrMetallicRoughness":{
				"baseColorTexture":{
					"index":0
				},
				"metallicFactor":0,
				"roughnessFactor":0.5
			}
		}
	],
	"meshes":[
		{
			"name":"Suzanne",
			"primitives":[
				{
					"attributes":{
						"POSITION":0,
						"NORMAL":1,
						"TEXCOORD_0":2
					},
					"indices":3,
					"material":0
				}
			]
		}
	],
	"textures":[
		{
			"sampler":0,
			"source":0
		}
	],
	"images":[
		{
			"mimeType":"image/png",
			"name":"bricks_wall_12_basecolor_1k",
			"uri":"bricks_wall_12_basecolor_1k.png"
		}
	],
	"accessors":[
		{
			"bufferView":0,
			"componentType":5126,
			"count":555,
			"max":[
				1.3671875,
				0.984375,
				0.8515625
			],
			"min":[
				-1.3671875,
				-0.984375,
				-0.8515625
			],
			"type":"VEC3"
		},
		{
			"bufferView":1,
			"componentType":5126,
			"count":555,
			"type":"VEC3"
		},
		{
			"bufferView":2,
			"componentType":5126,
			"count":555,
			"type":"VEC2"
		},
		{
			"bufferView":3,
			"componentType":5123,
			"count":2904,
			"type":"SCALAR"
		}
	],
	"bufferViews":[
		{
			"buffer":0,
			"byteLength":6660,
			"byteOffset":0,
			"target":34962
		},
		{
			"buffer":0,
			"byteLength":6660,
			"byteOffset":6660,
			"target":34962
		},
		{
			"buffer":0,
			"byteLength":4440,
			"byteOffset":13320,
			"target":34962
		},
		{
			"buffer":0,
			"byteLength":5808,
			"byteOffset":17760,
			"target":34963
		}
	],
	"samplers":[
		{
			"magFilter":9729,
			"minFilter":9987
		}
	],
	"buffers":[
		{
			"byteLength":23568,
			"uri":"monkey.bin"
		}
	]
}
